<svg xmlns="http://www.w3.org/2000/svg" xml:space="preserve" width="1500" height="1500" data-id="lg_ZlbQEXvxcrTgSgAODG" data-version="1" viewBox="0 0 1500 1500"><path stroke="transparent" d="M0 0h1500v1500H0z"/><g data-padding="20"><g transform="translate(-576.165 -590.232)scale(1.72788)"><rect width="497.551" height="71.19" x="117.026" y="338.814" fill="none" rx="0" ry="0" transform="translate(431.72 425.89)"/><path fill="#e0e0e0" d="M579.062 773.04h.37l12.67 30.05 11.08-29.8h7.5l-18.02 46.3h-.88l-12.6-29.98-12.54 29.92h-.88l-18.02-46.24h7.5l11.09 29.8Zm55.56 46.55h-22.36v-46.3h20.28v6.17h-13.29v12.79h10.71v6.3h-10.71v14.81h15.37Zm26.65 0h-22.36v-46.3h20.28v6.17h-13.29v12.79h10.71v6.3h-10.71v14.81h15.37Zm11.28 0h-6.93v-46.3h6.93v20.66l15.87-20.66h8.45l-15.94 20.35 18.2 25.95h-8.63l-14.17-20.72-3.78 4.66Zm50.08 0h-22.36v-46.3h20.28v6.17h-13.29v12.79h10.71v6.3h-10.71v14.81h15.37Zm39.25 0h-.94l-27.09-29.98.19 5.04v24.94h-7.06v-46.36h.88l27.22 30.36-.25-5.29v-25.01h7.05Zm18.59 0h-11.53v-46.3h11.15q6.24 0 10.61 1.39 4.38 1.38 7.22 3.68 2.83 2.3 4.44 5.23t2.24 6.05.63 6.01q0 4.35-1.23 8.6-1.23 4.26-4.07 7.72-2.83 3.47-7.59 5.55-4.75 2.07-11.87 2.07m-4.48-40.13v33.9h5.23q4.66 0 7.85-1.45 3.18-1.45 5.1-3.94t2.77-5.61q.85-3.11.85-6.39 0-4.47-1.57-8.22-1.58-3.75-5.2-6.02t-9.8-2.27Zm68.48 40.13h-22.36v-46.3h20.29v6.17h-13.3v12.79h10.71v6.3h-10.71v14.81h15.37Zm39.25 0h-.94l-27.09-29.98.19 5.04v24.94h-7.06v-46.36h.88l27.22 30.36-.25-5.29v-25.01h7.05Zm28.66.63q-5.23 0-9.61-1.82-4.38-1.83-7.56-5.07-3.18-3.25-4.91-7.69-1.74-4.44-1.74-9.61 0-5.1 1.77-9.38 1.76-4.29 4.98-7.44 3.21-3.15 7.62-4.88t9.64-1.73q4.09 0 7.09.72 2.99.73 4.78 1.58 1.8.85 2.3 1.35l-2.77 5.92q-.44-.38-1.76-1.13-1.33-.76-3.69-1.39t-6.08-.63q-5.16 0-8.82 2.24-3.65 2.24-5.61 6.02-1.95 3.78-1.95 8.37 0 5.36 2.14 9.49 2.15 4.12 5.86 6.42 3.72 2.3 8.44 2.3 2.71 0 5.52-.69 2.8-.69 4.75-2.33v-8.95h-9.51v-6.49h16.51v18.15q-2.08 2.64-6.56 4.66-4.47 2.01-10.83 2.01m42.9-.63h-20.41v-46.3h7.12v40h13.29Zm11.92 0h-7.06v-46.3h7.06Zm18.52.63q-2.65 0-5.23-.66t-4.6-1.64q-2.01-.97-3.02-1.98l3.34-5.98q.69.56 2.17 1.48 1.48.91 3.43 1.6 1.96.7 3.91.7 3.21 0 5.39-1.52 2.17-1.51 2.17-4.41 0-2.39-1.26-3.97-1.26-1.57-3.31-2.77-2.04-1.19-4.41-2.3-2.36-1.1-4.5-2.49-2.46-1.63-4.29-4.34-1.82-2.71-1.82-7 0-4.22 1.92-6.93 1.92-2.7 5.1-4.06 3.18-1.35 6.96-1.35 3.03 0 5.17.63t3.59 1.51 2.27 1.57l-3.34 5.74q-1.07-1.14-3.21-2.11-2.15-.98-4.79-.98-3.09 0-4.92 1.42-1.82 1.41-1.82 4.19 0 2.45 1.64 4.19 1.63 1.73 4.19 3.15 2.55 1.41 5.26 2.86 2.7 1.45 4.78 3.4 1.7 1.52 2.9 3.78 1.2 2.27 1.2 5.11 0 4.28-1.99 7.24-1.98 2.96-5.32 4.44t-7.56 1.48m26.64-.63h-7.06v-46.3h7.06v18.9h16.32v-18.9h7.05v46.3h-7.05v-21.48h-16.32Z"/><path stroke="#e0e0e0" stroke-width="5" d="M488.722 773.291h39.77m11.713-16.936v-40.948m-10.29 46.76-28.582-28.583m31.669 48.685-28.583 28.582m74.904-78.952-29.331 29.33" vector-effect="non-scaling-stroke"/></g><path fill="transparent" stroke="transparent" stroke-width="1.792" d="M250 642.473h1000v215.054H250z"/></g></svg>